<?xml version="1.0" encoding="utf-8"?>
<!-- Generator: Adobe Illustrator 24.0.0, SVG Export Plug-In . SVG Version: 6.00 Build 0)  -->
<svg version="1.1" id="Capa_1" xmlns="http://www.w3.org/2000/svg" xmlns:xlink="http://www.w3.org/1999/xlink" x="0px" y="0px"
	 viewBox="480 270 960 540" style="enable-background:new 0 0 1920 1080;" xml:space="preserve">
<style type="text/css">
	.st0{fill:#670388;}
	.st1{fill:#6FE904;}
	.st2{fill:#6DEA00;}
</style>
<g>
	<path class="st0" d="M760.16,407.17c0-6.68,5.42-12.1,12.1-12.1H304.53v235.67h28.94V501.79h77.08v-22.03h-77.08v-61.04
		l438.67,0.54C765.52,419.21,760.16,413.82,760.16,407.17z"/>
	<path class="st1" d="M1303.86,396.69l-18.14-10.48v8.86H776.28h-4.03c-6.68,0-12.1,5.42-12.1,12.1c0,6.65,5.36,12.04,11.99,12.09
		c0.03,0,0.07,0.01,0.1,0.01h513.46v8.86l18.14-10.48l18.14-10.48L1303.86,396.69z"/>
	<g>
		<path class="st0" d="M467.01,637.49c-9.33,0-18.2-1.74-26.61-5.21c-8.41-3.47-15.77-8.32-22.08-14.54
			c-6.31-6.21-11.34-13.58-15.09-22.08c-3.75-8.5-5.62-17.69-5.62-27.57c0-9.33,1.87-18.24,5.62-26.74
			c3.75-8.5,8.78-15.95,15.09-22.35c6.31-6.4,13.67-11.47,22.08-15.22c8.41-3.75,17.28-5.62,26.61-5.62
			c9.33,0,18.24,1.88,26.74,5.62c8.5,3.75,15.95,8.82,22.35,15.22c6.4,6.4,11.47,13.85,15.22,22.35c3.75,8.5,5.62,17.42,5.62,26.74
			c0,9.87-1.88,19.06-5.62,27.57c-3.75,8.5-8.82,15.87-15.22,22.08c-6.4,6.22-13.85,11.07-22.35,14.54
			C485.25,635.75,476.33,637.49,467.01,637.49z M467.01,521.47c-6.77,0-12.94,1.28-18.51,3.84c-5.58,2.56-10.42,5.99-14.54,10.28
			c-4.11,4.3-7.32,9.24-9.6,14.81c-2.29,5.58-3.43,11.48-3.43,17.69c0,6.58,1.14,12.71,3.43,18.38c2.28,5.67,5.49,10.56,9.6,14.67
			c4.11,4.11,8.96,7.32,14.54,9.6c5.58,2.29,11.75,3.43,18.51,3.43c6.76,0,12.98-1.14,18.65-3.43c5.67-2.28,10.56-5.49,14.67-9.6
			c4.11-4.12,7.31-9,9.6-14.67c2.28-5.67,3.43-11.79,3.43-18.38c0-6.21-1.14-12.11-3.43-17.69c-2.29-5.58-5.44-10.51-9.46-14.81
			c-4.02-4.29-8.91-7.72-14.67-10.28C480.03,522.75,473.77,521.47,467.01,521.47z"/>
		<path class="st0" d="M574.11,598.4c0.64,1.92,1.65,3.75,3.02,5.49c1.37,1.74,3.24,3.25,5.62,4.53c2.37,1.28,5.3,2.01,8.78,2.19
			v24.14c-7.68-0.36-14.26-1.87-19.75-4.53c-5.49-2.65-9.92-5.94-13.3-9.87c-3.39-3.93-5.9-8.32-7.54-13.17
			c-1.65-4.84-2.47-9.64-2.47-14.4V430.13h24.69v162.65C573.15,594.61,573.47,596.48,574.11,598.4z"/>
		<path class="st0" d="M632.8,598.4c0.64,1.92,1.65,3.75,3.02,5.49c1.37,1.74,3.24,3.25,5.62,4.53c2.37,1.28,5.3,2.01,8.78,2.19
			v24.14c-7.68-0.36-14.26-1.87-19.75-4.53c-5.49-2.65-9.92-5.94-13.3-9.87c-3.39-3.93-5.9-8.32-7.54-13.17
			c-1.65-4.84-2.47-9.64-2.47-14.4V430.13h24.69v162.65C631.84,594.61,632.16,596.48,632.8,598.4z"/>
		<path class="st0" d="M725.92,637.49c-9.33,0-18.2-1.74-26.61-5.21c-8.41-3.47-15.77-8.32-22.08-14.54
			c-6.31-6.21-11.34-13.58-15.09-22.08c-3.75-8.5-5.62-17.69-5.62-27.57c0-9.33,1.87-18.24,5.62-26.74
			c3.75-8.5,8.78-15.95,15.09-22.35c6.31-6.4,13.67-11.47,22.08-15.22c8.41-3.75,17.28-5.62,26.61-5.62
			c9.33,0,18.24,1.88,26.74,5.62c8.5,3.75,15.95,8.82,22.35,15.22c6.4,6.4,11.47,13.85,15.22,22.35c3.75,8.5,5.62,17.42,5.62,26.74
			c0,9.87-1.88,19.06-5.62,27.57c-3.75,8.5-8.82,15.87-15.22,22.08c-6.4,6.22-13.85,11.07-22.35,14.54
			C744.16,635.75,735.25,637.49,725.92,637.49z M725.92,521.47c-6.77,0-12.94,1.28-18.51,3.84c-5.58,2.56-10.42,5.99-14.54,10.28
			c-4.11,4.3-7.32,9.24-9.6,14.81c-2.29,5.58-3.43,11.48-3.43,17.69c0,6.58,1.14,12.71,3.43,18.38c2.28,5.67,5.49,10.56,9.6,14.67
			c4.11,4.11,8.96,7.32,14.54,9.6c5.58,2.29,11.75,3.43,18.51,3.43c6.76,0,12.98-1.14,18.65-3.43c5.67-2.28,10.56-5.49,14.67-9.6
			c4.11-4.12,7.31-9,9.6-14.67c2.28-5.67,3.43-11.79,3.43-18.38c0-6.21-1.14-12.11-3.43-17.69c-2.29-5.58-5.44-10.51-9.46-14.81
			c-4.02-4.29-8.91-7.72-14.67-10.28C738.95,522.75,732.68,521.47,725.92,521.47z"/>
		<path class="st0" d="M1001.03,499.25l-51.29,146.74l-47.73-94.63l-47.45,94.63l-51.57-146.74h24.69l30.45,88.32
			c7.13-14.26,14.49-28.71,22.08-43.34c7.59-14.63,14.85-29.07,21.81-43.34l43.89,86.95l30.72-88.59H1001.03z"/>
		<path class="st2" d="M1013.09,636.39V436.17l83.11,86.13c9.33-9.33,18.56-18.69,27.7-28.11c9.14-9.42,18.38-18.97,27.7-28.66
			c4.2-4.75,8.91-9.78,14.13-15.09c5.21-5.3,9.92-10.15,14.13-14.54v200.5h-24.14V496.23l-59.25,60.89l-59.25-61.17v140.43H1013.09z
			"/>
		<path class="st2" d="M1312.88,609.79c-7.32,8.78-15.63,15.63-24.96,20.57c-9.33,4.94-19.75,7.41-31.27,7.41
			c-10.79,0-20.25-1.73-28.39-5.21c-8.14-3.47-14.95-8.27-20.43-14.4c-5.49-6.12-9.6-13.39-12.34-21.81
			c-2.74-8.41-4.11-17.55-4.11-27.43c0-9.33,1.37-18.19,4.11-26.61c2.74-8.41,6.86-15.81,12.34-22.22
			c5.49-6.4,12.3-11.47,20.43-15.22c8.13-3.75,17.6-5.62,28.39-5.62c9.87,0,18.83,1.92,26.88,5.76c8.04,3.84,14.85,9.15,20.43,15.91
			c5.58,6.77,9.92,14.81,13.03,24.14c3.11,9.32,4.66,19.38,4.66,30.17h-106.42c0.18,6.03,1.19,11.57,3.02,16.59
			c1.83,5.03,4.48,9.37,7.95,13.03c3.47,3.66,7.77,6.54,12.89,8.64c5.12,2.1,10.97,3.15,17.55,3.15c6.4,0,12.16-1.14,17.28-3.43
			c5.12-2.28,9.42-4.89,12.89-7.82c4.02-3.29,7.58-7.04,10.7-11.25L1312.88,609.79z M1256.38,520.92c-5.86,0-11.11,0.96-15.77,2.88
			s-8.73,4.44-12.21,7.54c-3.48,3.11-6.27,6.68-8.36,10.7c-2.1,4.02-3.43,8.14-3.98,12.34h79.27c-1.1-4.57-2.84-8.91-5.21-13.03
			c-2.38-4.11-5.26-7.68-8.64-10.7c-3.39-3.02-7.18-5.39-11.38-7.13C1265.88,521.79,1261.31,520.92,1256.38,520.92z"/>
	</g>
	<g>
		<path class="st2" d="M1455.56,639.67v29.02h-160.12c22.99-24.58,42.39-45.97,58.21-64.19c15.82-18.21,28.62-33.97,38.41-47.29
			c9.78-13.32,16.84-24.63,21.17-33.97c4.32-9.33,6.49-17.41,6.49-24.24c0-7.05-1.08-13.26-3.24-18.61
			c-2.17-5.35-5.07-9.84-8.71-13.49c-3.64-3.64-7.68-6.37-12.12-8.19c-4.44-1.82-9.05-2.73-13.83-2.73
			c-10.02,0-18.44,3.53-25.26,10.58c-6.83,7.06-11.5,17.41-14,31.07h-29.7c1.37-11.83,4.38-22.07,9.05-30.73
			c4.66-8.65,10.24-15.88,16.73-21.68c6.49-5.8,13.6-10.13,21.34-12.97c7.73-2.84,15.36-4.27,22.87-4.27
			c9.78,0,18.78,1.77,26.97,5.29c8.19,3.53,15.19,8.42,21,14.68c5.8,6.26,10.35,13.6,13.66,22.02c3.3,8.42,4.95,17.53,4.95,27.31
			c0,10.02-2.22,20.48-6.66,31.41c-4.44,10.93-10.53,22.25-18.27,33.97c-7.74,11.73-16.96,24.02-27.66,36.87
			c-10.7,12.86-22.19,26.24-34.48,40.12H1455.56z"/>
		<path class="st1" d="M1579.53,592.77l-18.94-10.93v8.5h-22.1V446.26l-133.15,172.42h104.81v75.11h28.34v-75.11h22.1v6.9
			l18.94-10.93l18.94-10.93L1579.53,592.77z M1510.16,590.33h-48.14l48.14-61.46V590.33z"/>
	</g>
</g>
</svg>
