<?xml version="1.0" encoding="utf-8"?>
<!-- Generator: Adobe Illustrator 24.0.0, SVG Export Plug-In . SVG Version: 6.00 Build 0)  -->
<svg version="1.1" id="Capa_1" xmlns="http://www.w3.org/2000/svg" xmlns:xlink="http://www.w3.org/1999/xlink" x="0px" y="0px"
	 viewBox="0 0 631 488" style="enable-background:new 0 0 631 488;" xml:space="preserve">
<style type="text/css">
	.st0{fill:#FFFFFF;}
</style>
<g>
	<path class="st0" d="M160.47,316.2c-43.16,0-95.9-120.3-95.9-179.7c0-46.93,43.02-85.11,95.9-85.11c52.88,0,95.9,38.18,95.9,85.11
		l10.66,0.03l10.66-0.03c0-57.45-52.48-104.02-117.21-104.02c-64.73,0-117.21,46.57-117.21,104.02
		c0,57.45,52.48,198.61,117.21,198.61c17.01,0,33.17-9.81,47.76-25.23c-5.82-3.43-11.25-7.34-16.19-11.7
		C181.52,309.35,170.73,316.2,160.47,316.2z"/>
	<path class="st0" d="M141.84,293.78c2.1,2.11,5.04,3.19,7.97,3.19c2.52,0,5.04-0.78,7.07-2.38c4.41-3.46,4.81-9.44,0.91-13.34
		c-13.24-13.25-29.66-46.07-40.59-72.36c-2.04-4.89-8.18-7.4-13.69-5.6c-5.51,1.81-8.35,7.25-6.31,12.15
		C104.42,232.78,123.23,275.16,141.84,293.78z"/>
	<path class="st0" d="M160.47,202.7c-41.19,0-74.59-29.64-74.59-66.19c0-36.56,33.4-66.19,74.59-66.19
		c41.19,0,74.59,29.63,74.59,66.19h-21.31c0-26.07-23.9-47.28-53.28-47.28s-53.28,21.21-53.28,47.28c0,26.07,23.9,47.28,53.28,47.28
		V202.7z"/>
	<path class="st0" d="M495.94,349.47c20.64-23.55,33.06-53.03,33.06-85.11c0-76.66-70.28-139.02-156.65-139.02
		c-86.37,0-156.65,62.36-156.65,139.02c0,76.65,70.28,139.02,156.65,139.02c36.14,0,69.37-11.03,95.9-29.34l86.07,76.38
		c3.82,3.39,8.84,5.09,13.84,5.09c5.01,0,10.02-1.7,13.85-5.09c7.65-6.79,7.65-17.78,0-24.57L495.94,349.47z M372.35,368.63
		c-64.78,0-117.49-46.77-117.49-104.26S307.56,160.1,372.35,160.1s117.49,46.77,117.49,104.26S437.13,368.63,372.35,368.63z"/>
	<path class="st0" d="M372.35,177.48c-53.98,0-97.91,38.98-97.91,86.89c0,9.6,8.76,17.38,19.58,17.38
		c10.82,0,19.58-7.77,19.58-17.38c0-28.75,26.35-52.13,58.74-52.13c10.82,0,19.58-7.78,19.58-17.38
		C391.93,185.26,383.17,177.48,372.35,177.48z"/>
</g>
</svg>
