<?xml version="1.0" encoding="utf-8"?>
<!-- Generator: Adobe Illustrator 24.0.0, SVG Export Plug-In . SVG Version: 6.00 Build 0)  -->
<svg version="1.1" id="Capa_1" xmlns="http://www.w3.org/2000/svg" xmlns:xlink="http://www.w3.org/1999/xlink" x="0px" y="0px"
	 viewBox="0 0 1920 488" style="enable-background:new 0 0 1920 488;" xml:space="preserve">
<style type="text/css">
	.st0{fill:#670388;}
	.st1{fill:#6DEA00;}
	.st2{fill:#6FE904;}
</style>
<g>
	<g>
		<g>
			<path class="st0" d="M320.85,344.1c-13.29,0-25.7-2.52-37.22-7.58c-11.52-5.05-21.45-11.83-29.77-20.34
				c-8.33-8.51-14.89-18.43-19.67-29.77c-4.78-11.34-7.18-23.39-7.18-36.15c0-13.29,2.39-25.7,7.18-37.22
				c4.78-11.52,11.34-21.49,19.67-29.91c8.33-8.42,18.25-15.02,29.77-19.8c11.52-4.79,23.92-7.18,37.22-7.18
				c12.76,0,24.81,2.39,36.15,7.18c11.34,4.79,21.31,11.39,29.91,19.8c8.59,8.42,15.42,18.39,20.47,29.91
				c5.05,11.52,7.58,23.93,7.58,37.22c0,12.76-2.53,24.81-7.58,36.15c-5.05,11.35-11.88,21.27-20.47,29.77
				c-8.6,8.51-18.57,15.29-29.91,20.34C345.66,341.58,333.61,344.1,320.85,344.1z M320.85,179.82c-9.93,0-19.19,1.77-27.78,5.32
				c-8.6,3.55-16.04,8.47-22.33,14.75c-6.29,6.29-11.21,13.73-14.75,22.33c-3.55,8.6-5.32,17.94-5.32,28.05
				c0,9.4,1.77,18.34,5.32,26.85c3.54,8.51,8.46,15.95,14.75,22.33c6.29,6.38,13.73,11.48,22.33,15.29
				c8.59,3.81,17.85,5.72,27.78,5.72c9.39,0,18.34-1.9,26.85-5.72c8.51-3.81,15.95-8.91,22.33-15.29
				c6.38-6.38,11.47-13.82,15.28-22.33c3.81-8.51,5.72-17.45,5.72-26.85c0-10.1-1.91-19.45-5.72-28.05
				c-3.81-8.6-8.95-16.04-15.42-22.33c-6.47-6.29-13.96-11.21-22.46-14.75C338.93,181.59,330.07,179.82,320.85,179.82z"/>
			<path class="st0" d="M534.84,319.91v23.39H422.4V157.22h23.39v162.69H534.84z"/>
			<path class="st0" d="M665.37,319.91v23.39H552.92V157.22h23.39v162.69H665.37z"/>
			<path class="st0" d="M767.18,344.1c-13.29,0-25.7-2.52-37.21-7.58c-11.52-5.05-21.45-11.83-29.78-20.34
				c-8.33-8.51-14.88-18.43-19.67-29.77c-4.79-11.34-7.18-23.39-7.18-36.15c0-13.29,2.39-25.7,7.18-37.22
				c4.79-11.52,11.34-21.49,19.67-29.91c8.33-8.42,18.25-15.02,29.78-19.8c11.52-4.79,23.92-7.18,37.21-7.18
				c12.76,0,24.81,2.39,36.15,7.18c11.34,4.79,21.31,11.39,29.91,19.8c8.59,8.42,15.42,18.39,20.47,29.91
				c5.05,11.52,7.58,23.93,7.58,37.22c0,12.76-2.52,24.81-7.58,36.15c-5.05,11.35-11.87,21.27-20.47,29.77
				c-8.6,8.51-18.57,15.29-29.91,20.34C791.99,341.58,779.94,344.1,767.18,344.1z M767.18,179.82c-9.93,0-19.18,1.77-27.78,5.32
				c-8.6,3.55-16.04,8.47-22.33,14.75c-6.29,6.29-11.21,13.73-14.75,22.33c-3.55,8.6-5.32,17.94-5.32,28.05
				c0,9.4,1.77,18.34,5.32,26.85c3.54,8.51,8.46,15.95,14.75,22.33c6.29,6.38,13.73,11.48,22.33,15.29
				c8.6,3.81,17.85,5.72,27.78,5.72c9.39,0,18.34-1.9,26.85-5.72c8.51-3.81,15.95-8.91,22.33-15.29
				c6.38-6.38,11.47-13.82,15.28-22.33c3.81-8.51,5.72-17.45,5.72-26.85c0-10.1-1.91-19.45-5.72-28.05
				c-3.81-8.6-8.95-16.04-15.42-22.33c-6.47-6.29-13.95-11.21-22.46-14.75C785.26,181.59,776.39,179.82,767.18,179.82z"/>
			<path class="st0" d="M1098.93,157.22l-81.08,192.46l-39.08-88.79l-12.49,28.71c-4.26,9.57-8.69,19.72-13.29,30.44
				c-4.61,10.73-8.95,20.6-13.03,29.64l-81.34-192.46h25.26l56.36,130.26c2.13-4.61,4.39-9.66,6.78-15.15
				c2.39-5.49,4.56-10.54,6.51-15.15l1.33-2.66l11.17-24.99c-3.02-7.44-6.03-14.71-9.04-21.8c-3.02-7.09-6.03-14.35-9.04-21.8
				l-11.96-28.71h26.05l16.75,41.74c2.83-6.73,5.76-13.73,8.78-21c3.01-7.27,5.85-14.18,8.51-20.74h25.52l-30.04,72.57
				c4.61,10.1,8.95,19.72,13.02,28.84c4.08,9.13,8.42,18.74,13.02,28.84l28.71-66.72l27.38-63.53H1098.93z"/>
		</g>
		<path class="st1" d="M1125.21,376.52V130.93l100.98,105.64c11.33-11.43,22.55-22.93,33.66-34.48
			c11.11-11.55,22.33-23.27,33.66-35.16c5.11-5.83,10.83-12,17.16-18.5c6.33-6.5,12.05-12.45,17.16-17.83v245.92h-29.33V204.61
			l-71.98,74.69l-71.99-75.02v172.25H1125.21z"/>
		<path class="st1" d="M1368.53,203.2v47.43h59.35v18h-59.35v49.84h71.61v19.32h-93.9V183.88h93.9v19.32H1368.53z"/>
		<path class="st0" d="M580.64,101.83c0-7.16,5.8-12.96,12.96-12.96H92.59v252.44h31V203.19h82.57v-23.6h-82.57V114.2l469.9,0.58
			C586.39,114.73,580.64,108.95,580.64,101.83z"/>
		<path class="st2" d="M1412.64,90.61l-19.44-11.22v9.49H597.92h-4.32c-7.16,0-12.96,5.8-12.96,12.96c0,7.12,5.74,12.89,12.85,12.95
			c0.04,0,0.07,0.01,0.11,0.01h799.6v9.49l19.44-11.22l19.44-11.22L1412.64,90.61z"/>
	</g>
	<g>
		<path class="st1" d="M1628.26,353.79v40.44h-223.15c32.03-34.26,59.07-64.07,81.12-89.45c22.04-25.37,39.88-47.34,53.53-65.9
			c13.64-18.56,23.47-34.33,29.5-47.34c6.02-13,9.04-24.27,9.04-33.78c0-9.83-1.51-18.47-4.52-25.93
			c-3.02-7.45-7.06-13.72-12.13-18.79c-5.08-5.07-10.71-8.88-16.89-11.42c-6.18-2.54-12.61-3.81-19.27-3.81
			c-13.96,0-25.69,4.92-35.21,14.75c-9.52,9.84-16.02,24.27-19.51,43.3h-41.4c1.9-16.49,6.1-30.76,12.61-42.82
			c6.5-12.05,14.27-22.12,23.31-30.21c9.04-8.09,18.95-14.11,29.74-18.08c10.78-3.96,21.41-5.95,31.88-5.95
			c13.64,0,26.17,2.46,37.59,7.37c11.42,4.92,21.17,11.74,29.26,20.46c8.09,8.73,14.43,18.96,19.03,30.69
			c4.6,11.74,6.9,24.43,6.9,38.06c0,13.96-3.09,28.55-9.28,43.77c-6.18,15.23-14.68,31.01-25.45,47.34
			c-10.79,16.34-23.63,33.47-38.54,51.39c-14.91,17.92-30.93,36.56-48.06,55.91H1628.26z"/>
		<path class="st2" d="M1801.03,288.43l-26.39-15.24v11.84h-30.8V84.25l-185.56,240.28h146.07V429.2h39.49V324.53h30.8v9.61
			l26.39-15.24l26.39-15.24L1801.03,288.43z M1704.34,285.04h-67.09l67.09-85.64V285.04z"/>
	</g>
</g>
</svg>
